<svg width="989" height="710" xmlns="http://www.w3.org/2000/svg" xmlns:xlink="http://www.w3.org/1999/xlink" overflow="hidden"><defs><clipPath id="clip0"><path d="M0 0 989 0 989 710 0 710Z" fill-rule="evenodd" clip-rule="evenodd"/></clipPath><linearGradient x1="484.691" y1="498.494" x2="484.691" y2="-13.4863" gradientUnits="userSpaceOnUse" spreadMethod="reflect" id="stroke1"><stop offset="0" stop-color="#FFFFFF" stop-opacity="0"/><stop offset="0.08" stop-color="#FFFFFF" stop-opacity="0"/><stop offset="0.08" stop-color="#0A0A73"/><stop offset="1" stop-color="#0A0A73"/></linearGradient></defs><g clip-path="url(#clip0)"><rect x="0" y="0" width="988.369" height="710" fill="#FFFFFF" fill-opacity="0" transform="scale(1.00064 1)"/><path d="M0 489 484.691 0 969.381 489Z" stroke="url(#stroke1)" stroke-width="18.9879" stroke-miterlimit="8" fill="none" fill-rule="evenodd" transform="matrix(-1.00064 -8.74786e-08 8.74228e-08 -1 978.5 506.5)"/><path d="M0 96.5324C-1.52838e-14 43.219 43.219-1.52838e-14 96.5324-3.05675e-14L863.855 0C917.168-3.05675e-14 960.387 43.219 960.387 96.5324L960.387 579.468C960.387 632.781 917.168 676 863.855 676L96.5324 676C43.219 676 0 632.781 0 579.468Z" stroke="#0A0A73" stroke-width="20.9866" stroke-linecap="round" stroke-linejoin="round" stroke-miterlimit="10" fill="none" fill-rule="evenodd" transform="matrix(1.00064 0 -0 1 14.5 17.5)"/><path d="M0 0-302.258-302.258" stroke="#0A0A73" stroke-width="5.99613" stroke-miterlimit="8" fill="none" fill-rule="evenodd" transform="matrix(-1.00064 -0 -0 1 14 625.258)"/><path d="M0 0 302.258 302.258" stroke="#0A0A73" stroke-width="5.99613" stroke-miterlimit="8" fill="none" fill-rule="evenodd" transform="matrix(-1.00064 -8.74786e-08 8.74228e-08 -1 977.451 625.258)"/><path d="M153.402-140.069C147.01-140.069 140.993-138.446 135.35-135.201 129.708-131.955 124.24-126.737 118.947-119.546 113.653-112.355 109.409-103.616 106.213-93.3296 103.017-83.0429 101.419-73.6051 101.419-65.0161 101.419-51.3338 104.665-40.6975 111.157-33.1073 117.648-25.5171 125.089-21.722 133.478-21.722 139.071-21.722 144.963-23.3948 151.155-26.7405 157.347-30.0862 163.264-35.0548 168.907-41.6463 174.55-48.2378 179.169-56.602 182.764-66.7389 186.36-76.8758 188.157-87.0377 188.157-97.2246 188.157-110.807 184.787-121.343 178.045-128.834 171.304-136.324 163.09-140.069 153.402-140.069ZM165.087-223.661C189.855-223.661 212.101-218.593 231.826-208.456 251.55-198.319 267.105-183.214 278.491-163.14 288.178-145.862 293.022-127.086 293.022-106.812 293.022-77.8496 282.835-52.1327 262.461-29.6617 244.285-9.48776 224.411 0.599225 202.838 0.599225 195.947 0.599225 190.379-0.449422 186.135-2.54672 181.89-4.64401 178.769-7.64014 176.772-11.5351 175.474-14.0319 174.525-18.3264 173.926-24.4185 167.434-16.9282 160.168-10.9109 152.129-6.36679 144.089-1.82265 136.025 0.449422 127.935 0.449422 119.046 0.449422 110.408-2.14723 102.018-7.34053 93.6292-12.5338 86.813-20.5235 81.5698-31.3096 76.3265-42.0957 73.7049-53.9304 73.7049-66.8138 73.7049-82.6933 77.7747-98.5978 85.9142-114.527 94.0537-130.457 104.166-142.416 116.25-150.406 128.334-158.396 140.069-162.391 151.455-162.391 160.143-162.391 168.433-160.118 176.323-155.574 184.212-151.03 191.004-144.114 196.696-134.826L201.79-158.046 228.605-158.046 207.033-57.5258C204.037-43.5438 202.539-35.8038 202.539-34.3057 202.539-31.6092 203.562-29.2872 205.61-27.3397 207.657-25.3922 210.129-24.4185 213.025-24.4185 218.318-24.4185 225.259-27.4646 233.848-33.5567 245.234-41.5464 254.247-52.2576 260.888-65.6903 267.53-79.1229 270.851-92.98 270.851-107.262 270.851-123.94 266.581-139.52 258.042-154.001 249.503-168.483 236.77-180.068 219.841-188.757 202.913-197.445 184.212-201.79 163.739-201.79 140.369-201.79 119.021-196.322 99.6964-185.386 80.3713-174.45 65.3906-158.77 54.7544-138.347 44.1181-117.923 38.8-96.0261 38.8-72.6563 38.8-48.1878 44.1181-27.115 54.7544-9.43783 65.3906 8.23937 80.7708 21.2975 100.895 29.7366 121.019 38.1758 143.315 42.3953 167.784 42.3953 193.95 42.3953 215.872 38.001 233.549 29.2123 251.226 20.4237 264.459 9.73744 273.247-2.84633L300.363-2.84633C295.269 7.64014 286.53 18.3264 274.146 29.2123 261.762 40.0983 247.031 48.7122 229.953 55.054 212.875 61.3958 192.302 64.5667 168.233 64.5667 146.062 64.5667 125.613 61.7204 106.887 56.0277 88.1613 50.3351 72.2069 41.7711 59.0239 30.3359 45.8409 18.9006 35.9037 5.74259 29.2123-9.13821 20.8231-28.0139 16.6286-48.3876 16.6286-70.2594 16.6286-94.6279 21.6221-117.848 31.6092-139.92 43.7935-166.985 61.0962-187.708 83.5173-202.089 105.938-216.471 133.128-223.661 165.087-223.661Z" stroke="#0A0A73" stroke-width="2.99809" stroke-linejoin="round" stroke-miterlimit="10" fill="#0A0A73" fill-rule="evenodd" transform="matrix(1.00064 0 -0 1 332.086 281.93)"/><text fill="#000000" fill-opacity="0" font-family="Arial,Arial_MSFontService,sans-serif" font-size="288.228" x="348.725" y="310.468">@</text></g></svg>