<svg width="1008" height="720" xmlns="http://www.w3.org/2000/svg" xmlns:xlink="http://www.w3.org/1999/xlink" overflow="hidden"><defs><clipPath id="clip0"><rect x="0" y="0" width="1008" height="720"/></clipPath></defs><g clip-path="url(#clip0)"><rect x="0" y="0" width="1008" height="720" fill="#FFFFFF"/><path d="M24.5001 136.502C24.5001 74.6451 74.6451 24.5001 136.502 24.5001L872.498 24.5001C934.355 24.5001 984.5 74.6451 984.5 136.502L984.5 584.498C984.5 646.355 934.355 696.5 872.498 696.5L136.502 696.5C74.6451 696.5 24.5001 646.355 24.5001 584.498Z" stroke="#0A0A73" stroke-width="34.6667" stroke-miterlimit="8" fill="none" fill-rule="evenodd"/><path d="M47.5001 70.5001 504.3 561.7" stroke="#0A0A73" stroke-width="34.6667" stroke-linecap="round" stroke-linejoin="round" stroke-miterlimit="10" fill="none" fill-rule="evenodd"/><path d="M0 0 456.8 491.2" stroke="#0A0A73" stroke-width="34.6667" stroke-linecap="round" stroke-linejoin="round" stroke-miterlimit="10" fill="none" fill-rule="evenodd" transform="matrix(-1 0 0 1 961.3 70.5001)"/><path d="M0 0 237.6 282.4" stroke="#0A0A73" stroke-width="10.6667" stroke-miterlimit="8" fill="none" fill-rule="evenodd" transform="matrix(1 0 0 -1 43.5001 618.9)"/><path d="M966.1 618.9 728.5 336.5" stroke="#0A0A73" stroke-width="10.6667" stroke-miterlimit="8" fill="none" fill-rule="evenodd"/><text fill="#0A0A73" font-family="Arial,Arial_MSFontService,sans-serif" font-weight="400" font-size="347" transform="translate(326.272 315)">@</text></g></svg>