<?xml version="1.0" encoding="UTF-8"?>
<svg width="594" height="580" fill="#231F20" inkscape:version="1.0.2 (e86c870879, 2021-01-15)" sodipodi:docname="Adobe_PDF.svg" viewBox="-175 -166 594 580" xmlns="http://www.w3.org/2000/svg" xmlns:cc="http://creativecommons.org/ns#" xmlns:dc="http://purl.org/dc/elements/1.1/" xmlns:inkscape="http://www.inkscape.org/namespaces/inkscape" xmlns:rdf="http://www.w3.org/1999/02/22-rdf-syntax-ns#" xmlns:sodipodi="http://sodipodi.sourceforge.net/DTD/sodipodi-0.dtd">
 <metadata>
  <rdf:RDF>
   <cc:Work rdf:about="">
    <dc:format>image/svg+xml</dc:format>
    <dc:type rdf:resource="http://purl.org/dc/dcmitype/StillImage"/>
    <dc:title/>
   </cc:Work>
  </rdf:RDF>
 </metadata>
 <sodipodi:namedview bordercolor="#666666" borderopacity="1" gridtolerance="10" guidetolerance="10" inkscape:current-layer="svg2882" inkscape:cx="250.45687" inkscape:cy="302.38583" inkscape:pageopacity="0" inkscape:pageshadow="2" inkscape:window-height="1014" inkscape:window-maximized="1" inkscape:window-width="1920" inkscape:window-x="0" inkscape:window-y="36" inkscape:zoom="1.0009218" objecttolerance="10" pagecolor="#ffffff" showgrid="false"/>
 <g transform="matrix(.9775 0 0 .9852 6.48 1.95)">
  <path d="m401.4 278.1h1.7c1.9 0 3.5-0.5 3.5-2.2 0-1.3-0.8-2.2-3.3-2.2a9 9 0 0 0-2 0.2v4.3zm0 7.7h-2.6v-13.6a28 28 0 0 1 4.8-0.4c2.3 0 3.4 0.4 4.3 1 0.8 0.6 1.4 1.7 1.4 2.9 0 1.7-1.2 2.8-2.7 3.3v0.1c1.2 0.5 1.9 1.6 2.3 3.3 0.4 2.1 0.6 3 1 3.4h-2.7c-0.4-0.5-0.7-1.7-1-3.6-0.3-1.5-1.2-2-3.2-2h-1.6zm2.6 6a13.1 13.1 0 1 1 0-26.2 13.1 13.1 0 0 1 0 26.2zm10.5-13a10.5 10.5 0 1 0-21 0 10.5 10.5 0 0 0 21 0z" fill="#f91d0a"/>
  <path d="m-149.7 110.3 4.3-27.2c1.4-7.1 4.3-17.2 4.3-25.7h1.4c1.4 8.5 2.9 18.6 4.3 25.7l4.3 27.2zm21.4 11.5 5.8 31.5h15.7l-24.2-111.7h-17.2l-25.8 111.7h15.8l5.7-31.5h24.3m116.9 20c-10 0-12.9-15.7-12.9-28.6s2.9-30 13-30 11.3 17 11.3 29.9c0 11.4-1.5 28.6-11.5 28.6zm0 13c11.5 0 27.2-10.1 27.2-41.6 0.1-27.2-11.4-41.5-27.2-41.5-14.3 0-28.6 11.4-28.6 41.5 0 27.2 12.9 41.5 28.6 41.5" style="fill:#040404"/>
  <g fill="#f91d0a">
   <path d="m83.5 87.5a30.9 30.9 0 0 0-15.1-19.5v-0.2l4.2-9.9 6.4-15.8c-21.4-81.7-34.3-147.3-22.8-189.8 3.1-11 16-17.8 29.6-17.8l8.4 0.2h1.5c18.7-0.3 27.6 23.5 28.6 32.8 1.6 15.5-5.5 41.6-5.5 41.6 0-10.6 0.4-27.6-6.3-42.3-7.7-17-15.1-27.2-21.8-28.9-3.3 2.3-6.6 7-7.7 15.9-2.3 12.5-3 28.3-3 36.4 0 28.8 5.7 66.7 16.8 105.8 2-6 4-11.8 5.4-17.3l16.8-65.6s-3.7 75.9-8.8 98.9c-1 4.9-2.3 9.7-3.5 14.6a359 359 0 0 0 16.8 39.4l-0.1 0.2c-2.6-0.8-5.5-1.3-8.7-1.3-9.5 0-18.4 5-21.5 8a80.7 80.7 0 0 0-9.7 14.7zm38.3 33.8h21.5v-15l-0.1-5.7v-0.2a303.5 303.5 0 0 0 46.7 56 260 260 0 0 0 48 33.1c36.4-5.2 69.8-7.6 97.7-7.3 37 0.5 64.1 6 75.1 16.8a28.6 28.6 0 0 1 8.3 18.7c0.1 2.8-1.2 9.3-1.6 11 0.4-2 0.4-11.8-29.3-21.3-23.4-7.4-67.2-7.2-119.7-1.6 60.7 29.7 120 44.5 138.7 35.6 4.6-2.2 10.2-9.8 10.2-9.8s-3.4 15-5.7 18.8c-3 4-9 8.5-14.6 10-29.7 7.8-106.8-10.4-174-48.9-75.1 11.1-157.6 31.5-223.7 53.2-65 114-113.9 166.2-153.6 146.3l-14.6-7.3c-6-3.4-6.9-11.7-5.5-18.4 4.6-22.7 33-56.8 90.2-91 6.1-3.7 33.5-18.1 33.5-18.1s-20.3 19.6-25 23.4c-45.6 37.4-79.3 84.4-78.4 102.6l0.2 1.6c38.7-5.6 96.8-84.3 171.4-230.4l5.9-11.5h29.9l-12.3 23.6a2781 2781 0 0 1-35.9 65.3c62.3-26.1 129.2-42.8 193-54.7a310.5 310.5 0 0 1-76.3-75v0.1z"/>
  </g>
  <path d="m203.9 54.5c1.4 0 4.3-1.4 7.2-1.4 12.8 0 17.1 10 17.1 21.4 0 13-7.1 21.5-18.6 21.5h-5.6v-41.5zm-15.7 98.8h15.7v-44.4h5.7c10 0 20-4.3 27.2-11.5 4.3-5.7 7.2-14.3 7.2-24.3s-2.9-18.6-8.6-24.3c-5.7-5.8-15.7-8.6-27.2-8.6-7.2 0-14.3 1.4-18.6 2.8l-1.4 110.3m78.7-98.8c1.4-1.4 4.3-1.4 5.7-1.4 15.8 0 24.4 15.7 24.4 41.5 0 35.8-13 45.8-25.8 45.8h-4.3v-86zm-15.7 98.8h15.7c14.3 0 24.3-2.9 31.5-11.5 8.6-7.1 14.3-22.9 14.3-47.2 0-23-5.7-37.2-14.3-44.4-7.2-7.2-15.8-10-28.6-10-7.2 0-13 1.4-18.6 2.8v110.3m70.1-111.7h44.4v12.9h-28.7v35.8h27.2v14.3h-27.2v48.7h-15.8v-111.7" style="fill:#040404"/>
  <path d="m151.2 84h1.7c1.9 0 3.5-0.6 3.5-2.2 0-1.3-0.8-2.2-3.3-2.2a9 9 0 0 0-2 0.1v4.3zm0 7.7h-2.6v-13.7a28 28 0 0 1 4.8-0.4c2.3 0 3.4 0.4 4.3 1 0.8 0.6 1.4 1.7 1.4 3 0 1.7-1.2 2.7-2.7 3.2v0.2c1.2 0.5 1.9 1.5 2.3 3.2 0.4 2.2 0.6 3 1 3.5h-2.7c-0.5-0.5-0.8-1.7-1.1-3.6-0.3-1.5-1.2-2.1-3.2-2.1h-1.6v5.7zm2.6 6a13.1 13.1 0 1 1 0-26.2 13.05 13.05 0 0 1 0 26.1zm10.5-13.1a10.5 10.5 0 1 0-21 0 10.5 10.5 0 0 0 21 0z" style="fill:#040404"/>
  <path d="m100.8 104.6c0-10 4.3-21.5 11.5-21.5 7.1 0 11.4 7.2 11.4 21.5zm37.2 11.5v-8.6c0-20-7.1-35.8-24.3-35.8s-28.6 15.7-28.6 41.5 10 41.5 30 41.5c7.8 0 15.8-1.4 20-4.3l-2.8-11.4a34.2 34.2 0 0 1-12.9 2.8c-10 0-18.6-5.7-18.6-25.7h37.2" style="fill:#040404"/>
  <path d="m-62.4 100.2c0-1.7-0.4-4.2-1-5.8-1.3-5.1-5.2-9.9-9.9-9.9-9.4 0-13.4 11.4-13.4 27.9 0 18.1 3.8 29.5 13.3 29.5 3.4 0 7.6-2 10-9.7a18 18 0 0 0 1-6zm15.7 30c0 7.2 0.4 16.4 0.6 23h-13.1l-1-9.6h-0.5c-3.9 7.9-11 11-17.6 11-13.6 0-24.2-15.2-24.2-43.7 0-22.5 10.3-39.5 24.4-39.5 7 0 11.6 3.3 15.3 9.6h0.3v-42.1h15.8zm86.5-4c0 2.3 0.5 4.5 1 6 2.5 7.8 6.7 9.7 10 9.7 9.5 0 13.4-11.4 13.4-29.5 0-16.5-4.1-27.9-13.5-27.9-4.7 0-8.6 4.8-10 9.9-0.4 1.6-0.9 4.1-0.9 5.8zm-15.7-87.2h15.9v42h0.3c3.7-6.2 8.2-9.5 15.3-9.5 14.1 0 24.4 17 24.4 39.5 0 28.5-10.5 43.7-24.2 43.7-6.5 0-13.7-3.1-17.6-11h-0.4l-1 9.7h-13.4c0.2-6.7 0.6-15.9 0.6-23.1v-91.4z" fill="#1A171B" style="fill:#040404"/>
 </g>
</svg>
